<svg xmlns="http://www.w3.org/2000/svg" id="svg2" width="192" height="192">
  <g id="button">
    <path id="circle" fill="#3299fe" d="m 36.611903,17.443217 a 3.2156799,3.2156799 0 0 0 -0.152334,0.0039 3.2156799,3.2156799 0 0 0 -0.9425,0.190944 3.2156799,3.2156799 0 0 0 -2.065778,2.461862 3.2156799,3.2156799 0 0 0 1.098903,3.0225 c 3.398005,2.850952 5.360498,7.05926 5.360472,11.494847 -9.88e-4,8.286213 -6.718647,15.002949 -15.004847,15.002819 -8.286213,1.3e-4 -15.003859,-6.716606 -15.004847,-15.002819 -7.8e-5,-4.617977 2.089334,-8.744398 5.370625,-11.496875 l -0.0039,-0.0039 a 3.2156799,3.2156799 0 0 0 1.094847,-3.016403 3.2156799,3.2156799 0 0 0 -2.067806,-2.461875 3.2156799,3.2156799 0 0 0 -3.166735,0.556556 c -9.069905,7.60968 -10.2531,21.13137 -2.64264,30.200625 7.609667,9.069918 21.131357,10.253113 30.200612,2.642666 9.069294,-7.610265 10.251566,-21.131903 2.640625,-30.200625 -0.806845,-0.951041 -1.695161,-1.829841 -2.654834,-2.626403 l 0.0143,-0.01625 A 3.2156799,3.2156799 0 0 0 36.612163,17.44323 Z" transform="translate(-9.98 -48.91) scale(4.25518)"/>
    <path id="pipe" fill="#78c14e" d="m 24.85092,37.057032 c -1.959438,-0.0312 -3.52391,-1.785407 -3.496298,-3.785002 l 0,-17.52101 c -0.09295,-4.926324 7.196124,-4.926324 7.103213,0 l 0,17.52101 c 0.02821,2.043808 -1.604148,3.816644 -3.606915,3.785002 z" transform="translate(-9.98 -48.91) scale(4.25518)"/>
  </g>
</svg>
