<svg xmlns="http://www.w3.org/2000/svg" id="svg2" width="120" height="79.2">
  <g id="button">
    <path id="circle" fill="#3299fe" d="m 36.611903,17.443217 a 3.2156799,3.2156799 0 0 0 -0.152334,0.0039 3.2156799,3.2156799 0 0 0 -0.9425,0.190944 3.2156799,3.2156799 0 0 0 -2.065778,2.461862 3.2156799,3.2156799 0 0 0 1.098903,3.0225 c 3.398005,2.850952 5.360498,7.05926 5.360472,11.494847 -9.88e-4,8.286213 -6.718647,15.002949 -15.004847,15.002819 -8.286213,1.3e-4 -15.003859,-6.716606 -15.004847,-15.002819 -7.8e-5,-4.617977 2.089334,-8.744398 5.370625,-11.496875 l -0.0039,-0.0039 a 3.2156799,3.2156799 0 0 0 1.094847,-3.016403 3.2156799,3.2156799 0 0 0 -2.067806,-2.461875 3.2156799,3.2156799 0 0 0 -3.166735,0.556556 c -9.069905,7.60968 -10.2531,21.13137 -2.64264,30.200625 7.609667,9.069918 21.131357,10.253113 30.200612,2.642666 9.069294,-7.610265 10.251566,-21.131903 2.640625,-30.200625 -0.806845,-0.951041 -1.695161,-1.829841 -2.654834,-2.626403 l 0.0143,-0.01625 A 3.2156799,3.2156799 0 0 0 36.612163,17.44323 Z"/>
    <path id="pipe" fill="#78c14e" d="m 24.85092,37.057032 c -1.959438,-0.0312 -3.52391,-1.785407 -3.496298,-3.785002 l 0,-17.52101 c -0.09295,-4.926324 7.196124,-4.926324 7.103213,0 l 0,17.52101 c 0.02821,2.043808 -1.604148,3.816644 -3.606915,3.785002 z"/>
  </g>
  <g id="brand" fill="#373435">
    <g id="brandstart">
      <path id="brands" d="m 68.768625,13.825551 0,3.489694 -9.079668,0 c -1.097304,0 -1.99186,0.07423 -1.881555,1.165918 0.167453,1.657383 3.637166,1.556893 5.875233,2.407483 2.137629,0.812422 4.282252,2.050048 4.18886,4.688086 -0.147225,4.158765 -3.404999,6.074939 -8.724456,5.508191 -3.442114,-0.366743 -5.341154,-2.996721 -5.656885,-4.932161 l 4.079166,0 c 0.07436,1.311947 4.853992,3.052218 6.020638,0.614848 1.003275,-2.096081 -2.497729,-2.111018 -3.960658,-2.475889 -2.688543,-0.670553 -5.797311,-2.174211 -5.734989,-4.93012 0.07215,-3.188042 2.485106,-5.53605 5.286294,-5.53605 z"/>
      <path id="brandt1" d="m 75.632209,8.568676 -3.948737,2.435472 0,2.821403 -2.914847,0 0,3.489694 2.914847,0 0,13.800306 3.948737,0 0,-13.800306 2.91486,0 0,-3.489694 -2.91486,0 z"/>
      <path id="branda" d="m 78.547069,13.825551 0,3.489694 9.079668,0 c 1.097304,0 1.988597,0.889226 1.988597,1.986556 l 0,0.696722 -5.758597,1.570153 c -1.933932,0.527696 -3.629834,2.340832 -3.629834,4.838444 0,2.418637 1.528085,4.495881 4.661722,4.688125 2.542072,0.155948 3.716167,-0.462345 4.726709,-1.588444 l 0,1.60875 3.948763,0 0,-12.538903 c 0,-2.622815 -2.128308,-4.751097 -4.751097,-4.751097 z m 11.068265,8.894834 0,3.885791 c -0.522626,0.709085 -2.044419,1.645709 -3.375931,1.564069 -1.331512,-0.08164 -2.084069,-1.078688 -2.084069,-2.106416 0,-1.061255 0.827333,-1.998789 1.645319,-2.236403 z"/>
      <path id="brandr" d="m 102.53003,13.825551 c -2.622817,0 -4.751099,2.128282 -4.751099,4.751097 l 0,12.538903 3.948749,0 0,-11.81375 c 0,-1.097317 0.89129,-1.986556 1.9886,-1.986556 l 3.27235,0 0,-3.489694 z"/>
      <path id="brandt2" d="m 113.85222,8.568676 -3.94874,2.435472 0,2.821403 -2.91485,0 0,3.489694 2.91485,0 0,13.800306 3.94874,0 0,-13.800306 2.91486,0 0,-3.489694 -2.91486,0 z"/>
    </g>
    <g id="brandtclub">
      <path id="brandc" d="m 61.196125,37.631801 c -4.392115,3.12e-4 -7.952373,3.973645 -7.952347,8.874528 -2.6e-5,4.900883 3.560232,8.876374 7.952347,8.874528 3.484988,-0.0013 6.561802,-2.5389 7.590778,-6.254209 l -4.320472,0 c -0.658762,1.719484 -1.910935,2.78668 -3.270306,2.786875 -2.065232,2.99e-4 -3.739528,-2.420756 -3.739528,-5.407194 0,-2.986438 1.674296,-5.408052 3.739528,-5.407181 1.113385,4.68e-4 2.168504,0.719706 2.878278,1.960153 l 4.450472,0 c -1.242462,-3.289078 -4.129957,-5.427721 -7.32875,-5.4275 z"/>
      <path id="brandl" d="m 71.68459,32.17444 3.9481,0 0,23.2609 -3.9481,0 z"/>
      <path id="brandu" d="m 79.696737,37.739454 0,13.060931 c 0,2.558686 2.367716,4.635332 5.289388,4.635332 2.008097,0 3.733405,-0.991822 4.629209,-2.435472 l 0,2.435472 3.948763,0 0,-17.696263 -3.948763,0 0,10.834694 c 0,1.947556 -1.336907,3.526913 -2.985931,3.526237 C 84.981172,52.099722 83.6455,50.522796 83.6455,48.576176 l 0,-10.836722 z"/>
      <path id="brandb" d="m 97.780972,32.173829 0,23.261888 3.946708,0 0,-2.508597 c 1.19522,1.608529 2.79042,2.508766 4.45047,2.508597 3.5433,-3.51e-4 6.41509,-4.012619 6.41468,-8.95986 -4e-4,-4.946435 -2.87196,-8.959314 -6.41468,-8.957806 -1.66107,7.02e-4 -3.25641,0.906516 -4.45047,2.51875 l 0,-7.862972 z m 7.275928,8.811556 c 1.93938,-0.0013 3.51167,2.457442 3.51203,5.490472 3.6e-4,3.033823 -1.57214,5.495022 -3.51203,5.4925 -1.51363,-0.0026 -3.32922,-1.474408 -3.32922,-3.772028 l 0,-3.449056 c 0,-2.294162 1.81732,-3.760549 3.32922,-3.761888 z"/>
    </g>
  </g>
  <path id="hr" fill="#78c14e" d="m 3.46709,58.76594 113.0363,0 0,2.2594 -113.0363,0 z"/>
  <g id="slogam" fill="#373435">
    <g id="slogamconsumption">
      <path id="slogamc" d="m 6.310268,63.506286 c -1.806675,0 -3.077932,1.673828 -3.077334,3.56356 5.85e-4,1.888757 1.271556,3.56148 3.077334,3.56148 l 0.0065,0 c 0.779155,0 1.407315,-0.272142 1.848444,-0.671944 0.441129,-0.399789 0.689611,-0.890305 0.938431,-1.329302 0.433303,-0.764517 -0.694889,-1.400204 -1.092806,-0.615771 -0.221754,0.437164 -0.437307,0.775138 -0.672334,0.988143 -0.234078,0.212134 -0.494286,0.348309 -1.02986,0.349492 -1.064076,0.0026 -1.825668,-0.943839 -1.826084,-2.282098 -4.29e-4,-1.340144 0.761956,-2.286271 1.828112,-2.286245 0.672256,2.6e-5 1.322269,0.385827 1.67986,1.083836 0.401024,0.782782 1.520103,0.152282 1.092806,-0.615771 -0.586729,-1.054651 -1.622348,-1.74538 -2.772666,-1.74538 z"/>
      <path id="slogamo1" d="m 13.206378,63.506286 c -1.80648,0 -3.224611,1.633151 -3.224611,3.56252 0,1.929382 1.418131,3.56252 3.224611,3.56252 1.806467,0 3.224598,-1.633138 3.224598,-3.56252 0,-1.929369 -1.418131,-3.56252 -3.224598,-3.56252 z m 0,1.279395 c 1.066052,0 1.975389,0.983008 1.975389,2.283125 0,1.30013 -0.909337,2.285738 -1.975389,2.285738 -1.066065,0 -1.977937,-0.985608 -1.977937,-2.285738 0,-1.300117 0.911872,-2.283125 1.977937,-2.283125 z"/>
      <path id="slogamn1" d="m 18.210858,70.631235 c -0.344097,-0.0052 -0.614445,-0.288925 -0.614445,-0.634101 l 0,-5.834166 c 0,-0.603161 0.764686,-0.857428 1.124799,-0.374335 l 3.227146,4.329156 0,-3.954821 c 0,-0.875589 1.246687,-0.875589 1.246687,0 l 0,5.834166 c 0,0.599313 -0.764192,0.854139 -1.122264,0.374348 l -3.227146,-4.32406 0,3.949712 c 0,0.353158 -0.282711,0.63986 -0.634777,0.634101 z"/>
      <path id="slogams" d="M26.57199 70.576115c-.901992-.158457-1.819272-.722059-2.181049-1.741688-.281307-.792805.894374-1.21927 1.17559-.426426.186563.525993.64961.824395 1.221285.924794.571649.10036 1.184846-.06955 1.447264-.315978.238758-.224172.308087-.79274-.36309-1.171391-.428493-.241722-1.300676-.276419-2.19375-.552292-.692198-.213837-1.13204-.849186-1.195896-1.53361-.06383-.684411.28639-1.450371 1.023243-1.885533.597558-.352898 1.363674-.458562 2.125201-.287703.761527.170846 1.551186.724204 1.795118 1.677455.208572.815087-1.000194 1.131091-1.208597.315965-.11934-.46696-.417417-.661466-.858208-.760383-.440778-.09893-.992576.0052-1.226368.143858-.370942.21944-.426946.456261-.40625.678184.02067.221923.156312.395421.314847.444405.632905.195507 1.579539.172185 2.440048.657618 1.265823.714116 1.51203 2.34598.604292 3.198221-.658762.618501-1.611675.792961-2.51368.634504zM31.359656 63.506234c-.345111.000572-.623597.286208-.623597.638313l0 3.618472c0 1.584245 1.258491 2.868255 2.81125 2.868255 1.552759 0 2.81125-1.28401 2.81125-2.868255l0-3.618472c0-.352911-.279734-.638885-.625625-.638313-.345098.000572-.623597.286208-.623597.638313l0 3.618472c0 .880854-.698685 1.595776-1.562028 1.595776-.863343 0-1.562041-.714922-1.562041-1.595776l0-3.618472c0-.352911-.279721-.638885-.625612-.638313z"/>
      <path id="slogamm" d="m 42.846365,63.514034 c -0.309907,0.03406 -0.584909,0.17667 -0.668265,0.443404 l -1.255332,4.016376 -1.350765,-4.027088 c -0.233012,-0.694694 -1.791439,-0.514098 -1.791569,0.222768 l -9.62e-4,5.920486 c -2.6e-5,0.11765 0.11843,0.334711 0.31174,0.452153 0.19305,0.11726 0.430768,0.11765 0.623597,0 0.192751,-0.11765 0.310791,-0.334945 0.310791,-0.56979 l 0,-3.680066 1.322334,3.902847 c 0.198692,0.58643 0.98735,0.578643 1.178125,-0.0104 l 1.200472,-3.710057 8.45e-4,3.615404 c 3.9e-5,0.11739 0.11921,0.334763 0.311961,0.452374 0.192842,0.11765 0.430755,0.11765 0.623597,0 0.192738,-0.11765 0.310778,-0.334958 0.310778,-0.56979 l 0,-5.802849 c 0,-0.468065 -0.610805,-0.712387 -1.127347,-0.655473 0,0 9.1e-5,2.47e-4 0,2.6e-4 z"/>
      <path id="slogamo2" d="m 48.357156,63.506234 c -1.772472,0 -3.16368,1.632748 -3.16368,3.561194 0,1.928459 1.391208,3.563846 3.16368,3.563846 1.772459,0 3.163667,-1.635387 3.163667,-3.563846 0,-1.928446 -1.391208,-3.561207 -3.163667,-3.561194 z m 0,1.301963 c 1.032057,0 1.914445,0.972439 1.914445,2.259231 0,1.286792 -0.882388,2.259218 -1.914445,2.259218 -1.03207,0 -1.914458,-0.972426 -1.914458,-2.259218 0,-1.286792 0.882388,-2.259231 1.914458,-2.259231 z"/>
    </g>
    <g id="slogamsmart">
      <path id="slogami1" d="m 55.717899,70.631274 c -0.345098,-0.0039 -0.62153,-0.307177 -0.616993,-0.676364 0.0039,-0.31499 0,-3.853603 0,-5.780398 0,-0.890968 1.249222,-0.890968 1.249222,0 0,1.926795 -0.0039,5.461573 0,5.780398 0.0052,0.375583 -0.281164,0.680953 -0.632229,0.676364 z"/>
      <path id="path30" d="m 58.602274,70.631235 c -0.344097,-0.0052 -0.614458,-0.290121 -0.614458,-0.636701 l 0,-5.858177 c 0,-0.605683 0.764556,-0.860873 1.124812,-0.375882 l 3.227146,4.344405 0,-3.968523 c 0,-0.838708 1.249209,-0.838708 1.249209,0 0,1.95273 -5.07e-4,5.460351 0,5.858177 7.67e-4,0.605644 -0.764413,0.860743 -1.124799,0.375882 l -3.227146,-4.341857 0,3.965975 c 0,0.354588 -0.282698,0.642473 -0.634764,0.636701 z"/>
      <path id="slogamt1" d="m 64.759503,63.506403 c -0.861055,-0.0143 -0.838825,1.277653 0.02236,1.277653 l 1.716403,0 0,5.200078 c 0,0.352742 0.271167,0.642551 0.615472,0.64714 0.350662,0.0039 0.631722,-0.287885 0.631722,-0.64714 l 0,-5.200078 1.718431,0 c 0.864942,0 0.864942,-1.277653 0,-1.277653 l -4.682028,0 c -0.0078,0 -0.01482,1.3e-4 -0.02236,0 z"/>
      <path id="slogame1" d="m 71.354962,63.506273 c -0.345085,0 -0.623597,0.287404 -0.623597,0.640926 l 0,5.845281 c 0,0.352703 0.279305,0.638833 0.623597,0.638833 l 3.944681,0 c 0.832819,0 0.832819,-1.279746 0,-1.279746 l -3.321084,0 0,-1.643928 2.94125,0 c 0.891514,0 0.891514,-1.275599 0,-1.275599 l -2.94125,0 0,-1.648075 3.280472,0 c 0.864942,0 0.864942,-1.277692 0,-1.277692 z"/>
      <path id="slogaml" d="m 77.538594,70.631326 c -0.345085,3.12e-4 -0.624611,-0.288912 -0.624611,-0.64558 l 0,-5.833867 c 0,-0.860795 1.249222,-0.860795 1.249222,0 l 0,5.188274 2.891993,0 c 0.832819,0 0.832819,1.291173 0,1.291173 -1.172197,0 -3.222154,-2.73e-4 -3.516604,0 z"/>
      <path id="slogami2" d="m 83.147392,70.631235 c -0.345111,-0.0052 -0.620412,-0.301834 -0.614458,-0.66144 0.0052,-0.3068 0,-3.875105 0,-5.812664 0,-0.867802 1.249222,-0.867802 1.249222,0 l 0,5.812664 c 0,0.367965 -0.281684,0.66742 -0.634764,0.66144 z"/>
      <path id="slogamg2" d="m 85.051684,67.071874 c -6.11e-4,-1.929824 1.417936,-3.565627 3.224611,-3.565588 1.052311,1.3e-5 2.197286,0.415961 2.792972,1.526629 0.400868,0.747448 -0.693407,1.363778 -1.09434,0.616369 -0.345605,-0.644241 -0.928369,-0.863382 -1.698632,-0.863421 -1.066182,-6.5e-5 -1.978353,0.985556 -1.977937,2.286011 4.03e-4,1.298843 0.910806,2.282514 1.975402,2.28345 0.399607,3.64e-4 0.845351,-0.06149 1.18573,-0.182039 0.30511,-0.1079 0.545909,-0.226876 0.545909,-0.387504 l 0,-0.837421 -0.977548,0 c -0.87321,0 -0.87321,-1.276964 0,-1.276964 l 1.602159,0 c 0.344084,0 0.624598,0.2847 0.624598,0.637156 l 0,1.713907 c 0,0.09841 -0.02353,0.195208 -0.06604,0.283465 -0.276484,0.573157 -0.797641,0.891709 -1.320306,1.076699 -0.522665,0.184951 -1.123512,0.341874 -2.27149,0.183391 -1.252667,-0.172978 -2.544477,-1.565239 -2.545088,-3.49414 z"/>
      <path id="slogame2" d="m 93.318865,63.506273 c -0.344292,0 -0.621556,0.288197 -0.621556,0.640874 l 0,5.844904 c 0,0.351871 0.278057,0.637377 0.621556,0.638794 0.293475,0.0011 2.629796,0 3.944694,0 0.832806,0 0.832806,-1.279681 0,-1.279681 l -3.321097,0 0,-1.643811 2.943278,0 c 0.891514,0 0.891514,-1.275508 0,-1.275508 l -2.943278,0 0,-1.647971 3.278444,0 c 0.864942,0 0.864942,-1.277601 0,-1.277601 z"/>
      <path id="slogamn2" d="M 99.416645,70.631248 C 99.072535,70.626048 98.8022,70.342323 98.8022,69.997147 l 0,-5.834179 c 0,-0.603174 0.764686,-0.857428 1.124799,-0.374348 l 3.227151,4.329169 0,-3.954821 c 0,-0.875589 1.24668,-0.875589 1.24668,0 l 0,5.834179 c 0,0.599313 -0.76414,0.854113 -1.12226,0.374348 l -3.2297,-4.326608 0,3.95226 c 0,0.352144 -0.28116,0.639119 -0.632225,0.634101 z"/>
      <path id="slogamt2" d="m 105.60387,63.506364 c -0.86031,-0.0117 -0.83601,1.277653 0.0243,1.277653 l 1.7164,0 0,5.200078 c 0,0.351949 0.26993,0.641433 0.61344,0.647153 0.35147,0.0052 0.63375,-0.287066 0.63375,-0.647153 l 0,-5.200078 1.71843,0 c 0.86496,0 0.86496,-1.277653 0,-1.277653 l -4.68202,0 c -0.008,0 -0.0162,1.17e-4 -0.0243,0 z"/>
      <path id="slogame3" d="m 112.16728,63.506273 c -0.34429,0 -0.62156,0.288197 -0.62156,0.640874 l 0,5.844904 c 0,0.351871 0.27806,0.637377 0.62156,0.638794 0.29347,0.0011 2.63115,0 3.94673,0 0.83281,0 0.83281,-1.279681 0,-1.279681 l -3.32109,0 0,-1.643811 2.94326,0 c 0.89152,0 0.89152,-1.275508 0,-1.275508 l -2.94326,0 0,-1.647971 3.27843,0 c 0.86494,0 0.86494,-1.277601 0,-1.277601 z"/>
    </g>
  </g>
</svg>
