<?xml version="1.0" encoding="UTF-8" standalone="no"?>
<svg
   xmlns:dc="http://purl.org/dc/elements/1.1/"
   xmlns:cc="http://creativecommons.org/ns#"
   xmlns:rdf="http://www.w3.org/1999/02/22-rdf-syntax-ns#"
   xmlns:svg="http://www.w3.org/2000/svg"
   xmlns="http://www.w3.org/2000/svg"
   xmlns:sodipodi="http://sodipodi.sourceforge.net/DTD/sodipodi-0.dtd"
   xmlns:inkscape="http://www.inkscape.org/namespaces/inkscape"
   id="svg2"
   width="184"
   height="34"
   version="1.1"
   inkscape:version="0.91 r13725"
   sodipodi:docname="startclub-logo-xs.svg"
   inkscape:export-filename="C:\git\startclub\img\startclub-logo.png"
   inkscape:export-xdpi="90.000412"
   inkscape:export-ydpi="90.000412">
  <metadata
     id="metadata43">
    <rdf:RDF>
      <cc:Work
         rdf:about="">
        <dc:format>image/svg+xml</dc:format>
        <dc:type
           rdf:resource="http://purl.org/dc/dcmitype/StillImage" />
        <dc:title></dc:title>
      </cc:Work>
    </rdf:RDF>
  </metadata>
  <defs
     id="defs41" />
  <sodipodi:namedview
     pagecolor="#ffffff"
     bordercolor="#666666"
     borderopacity="1"
     objecttolerance="10"
     gridtolerance="10"
     guidetolerance="10"
     inkscape:pageopacity="0"
     inkscape:pageshadow="2"
     inkscape:window-width="1301"
     inkscape:window-height="744"
     id="namedview39"
     showgrid="false"
     fit-margin-top="0"
     fit-margin-left="0"
     fit-margin-right="-0.2"
     fit-margin-bottom="0"
     inkscape:zoom="3.6253663"
     inkscape:cx="103.29173"
     inkscape:cy="0.85953119"
     inkscape:window-x="65"
     inkscape:window-y="24"
     inkscape:window-maximized="1"
     inkscape:current-layer="svg2" />
  <g
     id="g4250"
     transform="matrix(1.0768955,0,0,1.0768955,78.69875,-2.6517235)">
    <g
       transform="matrix(0.71600792,0,0,0.71600792,-2.4841542,-6.1352399)"
       id="button">
      <path
         d="m 36.611903,17.443217 a 3.2156799,3.2156799 0 0 0 -0.152334,0.0039 3.2156799,3.2156799 0 0 0 -0.9425,0.190944 3.2156799,3.2156799 0 0 0 -2.065778,2.461862 3.2156799,3.2156799 0 0 0 1.098903,3.0225 c 3.398005,2.850952 5.360498,7.05926 5.360472,11.494847 -9.88e-4,8.286213 -6.718647,15.002949 -15.004847,15.002819 -8.286213,1.3e-4 -15.003859,-6.716606 -15.004847,-15.002819 -7.8e-5,-4.617977 2.089334,-8.744398 5.370625,-11.496875 l -0.0039,-0.0039 a 3.2156799,3.2156799 0 0 0 1.094847,-3.016403 3.2156799,3.2156799 0 0 0 -2.067806,-2.461875 3.2156799,3.2156799 0 0 0 -3.166735,0.556556 c -9.069905,7.60968 -10.2531,21.13137 -2.64264,30.200625 7.609667,9.069918 21.131357,10.253113 30.200612,2.642666 9.069294,-7.610265 10.251566,-21.131903 2.640625,-30.200625 -0.806845,-0.951041 -1.695161,-1.829841 -2.654834,-2.626403 l 0.0143,-0.01625 A 3.2156799,3.2156799 0 0 0 36.612163,17.44323 Z"
         id="circle"
         inkscape:connector-curvature="0"
         style="fill:#3299fe" />
      <path
         d="m 24.85092,37.057032 c -1.959438,-0.0312 -3.52391,-1.785407 -3.496298,-3.785002 l 0,-17.52101 c -0.09295,-4.926324 7.196124,-4.926324 7.103213,0 l 0,17.52101 c 0.02821,2.043808 -1.604148,3.816644 -3.606915,3.785002 z"
         id="pipe"
         inkscape:connector-curvature="0"
         style="fill:#78c14e" />
    </g>
    <g
       transform="matrix(1.0740425,0,0,1.0740425,-130.52998,-2.696305)"
       id="brandstart"
       style="fill:#373435">
      <path
         inkscape:connector-curvature="0"
         id="brands"
         d="m 68.768625,13.825551 0,3.489694 -9.079668,0 c -1.097304,0 -1.99186,0.07423 -1.881555,1.165918 0.167453,1.657383 3.637166,1.556893 5.875233,2.407483 2.137629,0.812422 4.282252,2.050048 4.18886,4.688086 -0.147225,4.158765 -3.404999,6.074939 -8.724456,5.508191 -3.442114,-0.366743 -5.341154,-2.996721 -5.656885,-4.932161 l 4.079166,0 c 0.07436,1.311947 4.853992,3.052218 6.020638,0.614848 1.003275,-2.096081 -2.497729,-2.111018 -3.960658,-2.475889 -2.688543,-0.670553 -5.797311,-2.174211 -5.734989,-4.93012 0.07215,-3.188042 2.485106,-5.53605 5.286294,-5.53605 z" />
      <path
         inkscape:connector-curvature="0"
         id="brandt1"
         d="m 75.632209,8.568676 -3.948737,2.435472 0,2.821403 -2.914847,0 0,3.489694 2.914847,0 0,13.800306 3.948737,0 0,-13.800306 2.91486,0 0,-3.489694 -2.91486,0 z" />
      <path
         inkscape:connector-curvature="0"
         id="branda"
         d="m 78.547069,13.825551 0,3.489694 9.079668,0 c 1.097304,0 1.988597,0.889226 1.988597,1.986556 l 0,0.696722 -5.758597,1.570153 c -1.933932,0.527696 -3.629834,2.340832 -3.629834,4.838444 0,2.418637 1.528085,4.495881 4.661722,4.688125 2.542072,0.155948 3.716167,-0.462345 4.726709,-1.588444 l 0,1.60875 3.948763,0 0,-12.538903 c 0,-2.622815 -2.128308,-4.751097 -4.751097,-4.751097 z m 11.068265,8.894834 0,3.885791 c -0.522626,0.709085 -2.044419,1.645709 -3.375931,1.564069 -1.331512,-0.08164 -2.084069,-1.078688 -2.084069,-2.106416 0,-1.061255 0.827333,-1.998789 1.645319,-2.236403 z" />
      <path
         inkscape:connector-curvature="0"
         id="brandr"
         d="m 102.53003,13.825551 c -2.622817,0 -4.751099,2.128282 -4.751099,4.751097 l 0,12.538903 3.948749,0 0,-11.81375 c 0,-1.097317 0.89129,-1.986556 1.9886,-1.986556 l 3.27235,0 0,-3.489694 z" />
      <path
         inkscape:connector-curvature="0"
         id="brandt2"
         d="m 113.85222,8.568676 -3.94874,2.435472 0,2.821403 -2.91485,0 0,3.489694 2.91485,0 0,13.800306 3.94874,0 0,-13.800306 2.91486,0 0,-3.489694 -2.91486,0 z" />
    </g>
    <g
       transform="matrix(1.0441113,0,0,1.0441113,-19.777211,-27.086241)"
       id="brandtclub"
       style="fill:#373435">
      <path
         inkscape:connector-curvature="0"
         id="brandc"
         d="m 61.196125,37.631801 c -4.392115,3.12e-4 -7.952373,3.973645 -7.952347,8.874528 -2.6e-5,4.900883 3.560232,8.876374 7.952347,8.874528 3.484988,-0.0013 6.561802,-2.5389 7.590778,-6.254209 l -4.320472,0 c -0.658762,1.719484 -1.910935,2.78668 -3.270306,2.786875 -2.065232,2.99e-4 -3.739528,-2.420756 -3.739528,-5.407194 0,-2.986438 1.674296,-5.408052 3.739528,-5.407181 1.113385,4.68e-4 2.168504,0.719706 2.878278,1.960153 l 4.450472,0 c -1.242462,-3.289078 -4.129957,-5.427721 -7.32875,-5.4275 z" />
      <path
         inkscape:connector-curvature="0"
         id="brandl"
         d="m 71.68459,32.17444 3.9481,0 0,23.2609 -3.9481,0 z" />
      <path
         inkscape:connector-curvature="0"
         id="brandu"
         d="m 79.696737,37.739454 0,13.060931 c 0,2.558686 2.367716,4.635332 5.289388,4.635332 2.008097,0 3.733405,-0.991822 4.629209,-2.435472 l 0,2.435472 3.948763,0 0,-17.696263 -3.948763,0 0,10.834694 c 0,1.947556 -1.336907,3.526913 -2.985931,3.526237 C 84.981172,52.099722 83.6455,50.522796 83.6455,48.576176 l 0,-10.836722 z" />
      <path
         inkscape:connector-curvature="0"
         id="brandb"
         d="m 97.780972,32.173829 0,23.261888 3.946708,0 0,-2.508597 c 1.19522,1.608529 2.79042,2.508766 4.45047,2.508597 3.5433,-3.51e-4 6.41509,-4.012619 6.41468,-8.95986 -4e-4,-4.946435 -2.87196,-8.959314 -6.41468,-8.957806 -1.66107,7.02e-4 -3.25641,0.906516 -4.45047,2.51875 l 0,-7.862972 z m 7.275928,8.811556 c 1.93938,-0.0013 3.51167,2.457442 3.51203,5.490472 3.6e-4,3.033823 -1.57214,5.495022 -3.51203,5.4925 -1.51363,-0.0026 -3.32922,-1.474408 -3.32922,-3.772028 l 0,-3.449056 c 0,-2.294162 1.81732,-3.760549 3.32922,-3.761888 z" />
    </g>
  </g>
</svg>
